<svg t="1586918898992" class="icon" viewBox="0 0 1503 1024" version="1.1" xmlns="http://www.w3.org/2000/svg" p-id="2306" width="200" height="200"><path d="M1345.3240475 991.98426875v-18.34264687h77.82253219v-77.60229376H1441.52068812v95.96067188z m77.82253219-941.64162188h-77.82253219V32H1441.52068812v95.88201563h-18.37410843z m-68.58828375 58.00114688a52.41655031 52.41655031 0 0 1 15.52675125 37.34600531v720.49160156a52.90422 52.90422 0 0 1-52.95141375 52.79410125H147.43596875a52.9356825 52.9356825 0 0 1-52.95141281-52.79410125v-720.49160156a52.9356825 52.9356825 0 0 1 52.95141281-52.76263781h1169.71339594a52.8098325 52.8098325 0 0 1 37.40893125 15.4166325z m-37.37746875 7.86562875H147.43596875a29.49610781 29.49610781 0 0 0-29.51183906 29.41745156v720.49160156a29.52757031 29.52757031 0 0 0 29.51183906 29.448915h1169.68193344a29.52757031 29.52757031 0 0 0 29.52757125-29.448915V145.70553031a29.21294531 29.21294531 0 0 0-8.65219219-20.81245406A29.88939 29.88939 0 0 0 1317.24375219 116.28807875zM884.9645225 723.32585c0.95960625-46.092585 9.43875469-124.74887344 55.48414594-164.76919312l63.34977469 0.58205718 59.32257281 97.53379688 11.18492437-72.96157313-8.08586625-13.22998781 0.61351875-13.59180656a261.9569025 261.9569025 0 0 1 35.25374813 0l0.66071344 13.59180656-8.05440469 13.21425656 11.23211812 73.54363032L1152.06554656 558.66677562l70.08275344-2.37541968c36.18189281 34.13682938 59.44842281 114.57075 53.7537075 167.03449406zM1179.64244188 452.65383031c-4.82949656 17.19426469-10.47701719 33.13002844-18.56288438 46.48586625-9.23424844 15.4166325-21.45743531 27.27800062-38.714625 33.66489188-7.7240475 2.78443219-27.43531313 4.10585813-46.39147875 3.77550187-18.27972187-0.23596875-36.65383031-2.04506344-44.04752156-5.42728406-15.7312575-7.17345375-26.74313813-19.30225313-35.06497313-34.35706687-7.17345375-12.86816906-12.25464937-27.87578906-16.73805843-43.71716532-7.33076625-3.82269563-12.85243781-10.35116719-16.58074594-19.23932812-4.04293313-9.67472344-5.89922156-22.38558-5.66325281-37.45612406v-5.14412157l4.29463312-2.84735718c1.06972594-0.7236375 2.17091344-1.43154469 3.28783313-2.04506344-4.82949656-59.19672281-3.00467063-81.09463313 19.05055312-106.10733375 43.00925813-35.09643562 141.58131937-33.85366687 185.14117219-2.02933219 29.66915156 27.93871406 31.74567844 59.24391656 22.62154781 107.55460875 1.43154469 0.818025 2.83162594 1.68324469 4.26317156 2.64285187l4.27890188 2.87881969v5.11265907c0.2517 14.75592-1.57312594 27.26226938-5.41155281 36.90553031-3.58672688 8.80950469-8.85669844 15.36943875-15.96722625 19.34944687z m-0.53486344-51.29963156a13.34010656 13.34010656 0 0 0-5.08119563-0.77083125l-8.74657968 0.55059375-1.57312594-8.573535a111.69192938 111.69192938 0 0 0-9.076935-27.79713281c-27.89152031 5.44301531-69.359115 10.20958594-102.12732469-8.195985-12.58500656-7.07906625-31.084965 7.42515375-46.21843594 5.93068406a114.17746781 114.17746781 0 0 0-10.20958593 30.06243375l-1.69897594 8.90389125-8.951085-0.86521875a13.63900031 13.63900031 0 0 0-5.22277781 0.62925 23.26653 23.26653 0 0 0-2.42261344 0.95960719c0.20450625 9.84776719 1.57312594 18.01228969 4.16878312 24.13174875 2.24956969 5.36435906 5.36435906 8.85669844 9.43875469 10.13093062l5.23850813 1.573125 1.44727593 5.25424031c4.40475187 16.18746375 9.28144219 31.54117125 16.23465844 44.04752157 6.41835281 11.54674312 14.64580125 20.76526031 25.97230594 25.95657562 4.71937688 2.18664469 20.02589062 3.41368313 35.93019281 3.64965188 16.92683344 0.23596875 33.77501063-0.62925 39.32814375-2.69004563 12.58500656-4.59352688 21.58328531-13.54461281 28.59942656-25.17001219 7.50381-12.58500656 12.86816906-28.47357656 17.57181469-45.95100374l1.36861969-5.06546532 4.97107781-1.7304375c3.93281437-1.38435094 7.00041-4.97107781 9.23424844-10.39836187 2.43834469-6.02507156 3.77550187-14.06374406 4.02720187-23.707005a14.45702625 14.45702625 0 0 0-2.20237687-0.86521969z m-836.13207657 59.10233531h270.07423219v46.23416625H342.97550187z m0-115.07415h270.07423219v46.23416625H342.97550187z m0-115.07415h270.07423219v46.23416625H342.97550187z m-122.70381 230.1483h89.66816907v46.23416625h-89.66816907z m0-115.07415h89.66816907v46.23416625h-89.66816907z m0-115.07415h89.66816907v46.23416625h-89.66816907z m238.13977875 577.43154469H220.30315438v-46.2498975h238.10831624z m434.08832438 0H486.25579719v-46.2498975H892.499795zM50.40557188 127.88201563H32V32h96.22810313v18.34264687H50.40557188z m-1e-8 845.75960624h77.82253125v18.34264688H32v-95.96067188h18.40557187z m0 0" fill="#666666" p-id="2307"></path></svg>